<svg width="392" height="124" viewBox="0 0 392 124" fill="none" xmlns="http://www.w3.org/2000/svg">
<g clip-path="url(#clip0)">
<path d="M0 121.55H7.65V72.59H85V121.55H92.65V2.55H85V49.64H7.65V2.55H0V121.55Z" fill="#222222"/>
<path d="M167.717 124.1C199.337 124.1 220.247 100.3 220.247 62.05C220.247 23.8 199.337 0 167.717 0C135.927 0 115.017 23.8 115.017 62.05C115.017 100.3 135.927 124.1 167.717 124.1ZM167.717 101.49C128.617 101.49 121.987 75.14 121.987 62.05C121.987 48.96 128.617 22.61 167.717 22.61C206.817 22.61 213.277 48.96 213.277 62.05C213.277 75.14 206.817 101.49 167.717 101.49Z" fill="#222222"/>
<path d="M262.074 121.55H284.854L308.994 36.72L333.474 121.55H356.084L391.444 2.55H366.284L336.024 104.04L306.614 2.55H294.034L264.624 104.04L235.044 2.55H226.714L262.074 121.55Z" fill="#222222"/>
</g>
<defs>
<clipPath id="clip0">
<rect width="392" height="124" fill="white"/>
</clipPath>
</defs>
</svg>
