<svg width="310" height="124" viewBox="0 0 310 124" fill="none" xmlns="http://www.w3.org/2000/svg">
<path d="M0 122H7.64999V75.42H44.88C75.99 75.42 90.1 61.48 90.1 38.53C90.1 5.37996 61.71 3 44.88 3H0V122ZM7.64999 53.15V25.27H43.35C72.76 25.27 83.81 26.46 83.81 39.04C83.81 51.96 72.76 53.15 43.35 53.15H7.64999Z" fill="#222222"/>
<path d="M106.868 122H188.638V99.05H114.518V3H106.868V122Z" fill="#222222"/>
<path d="M197.811 122H206.991L214.811 99.05H276.351L284.851 122H309.501L265.471 3H240.481L197.811 122ZM222.121 77.46L245.411 10.99L268.531 77.46H222.121Z" fill="#222222"/>
</svg>
