<svg width="95" height="124" viewBox="0 0 95 124" fill="none" xmlns="http://www.w3.org/2000/svg">
<g clip-path="url(#clip0)">
<path d="M47.09 124.1C75.48 124.1 94.52 109.14 94.52 85.8501C94.52 40.6301 10.03 58.8201 10.03 35.1901C10.03 28.3901 20.06 22.61 45.05 22.61C69.87 22.61 83.64 28.39 83.64 36.38H90.1C90.1 13.26 70.38 0 45.73 0C21.42 0 3.23 12.41 3.06 33.15C2.72 82.11 87.55 60.1801 87.55 85.3401C87.55 95.7101 73.78 101.49 46.41 101.49C18.87 101.49 6.63 90.95 6.63 80.24H0C0 105.06 17.51 124.1 47.09 124.1Z" fill="#222222"/>
</g>
<defs>
<clipPath id="clip0">
<rect width="95" height="124" fill="white"/>
</clipPath>
</defs>
</svg>
