<svg width="23" height="28" viewBox="0 0 23 28" fill="none" xmlns="http://www.w3.org/2000/svg">
<path fill-rule="evenodd" clip-rule="evenodd" d="M15.9352 10.1994C15.9352 13.3673 13.3672 15.9353 10.1993 15.9353C7.03149 15.9353 4.46344 13.3673 4.46344 10.1994C4.46344 7.03153 7.03149 4.46346 10.1993 4.46346C13.3672 4.46346 15.9352 7.03153 15.9352 10.1994ZM13.7634 18.6829C12.6673 19.144 11.4631 19.3988 10.1993 19.3988C5.11868 19.3988 1 15.2801 1 10.1994C1 5.11871 5.11868 1 10.1993 1C15.28 1 19.3987 5.11871 19.3987 10.1994C19.3987 12.7694 18.3449 15.0932 16.6458 16.7623L22 25L19.1 26.8936L13.7634 18.6829Z" fill="#025050"/>
<path d="M13.7634 18.6829L14.1826 18.4104L13.9548 18.06L13.5695 18.222L13.7634 18.6829ZM16.6458 16.7623L16.2954 16.4056L16.0038 16.6921L16.2265 17.0348L16.6458 16.7623ZM22 25L22.2734 25.4187L22.6911 25.1459L22.4192 24.7275L22 25ZM19.1 26.8936L18.6808 27.1661L18.9538 27.5862L19.3734 27.3122L19.1 26.8936ZM10.1993 16.4353C13.6433 16.4353 16.4352 13.6434 16.4352 10.1994H15.4352C15.4352 13.0911 13.091 15.4353 10.1993 15.4353V16.4353ZM3.96344 10.1994C3.96344 13.6434 6.75535 16.4353 10.1993 16.4353V15.4353C7.30764 15.4353 4.96344 13.0911 4.96344 10.1994H3.96344ZM10.1993 3.96346C6.75535 3.96346 3.96344 6.75539 3.96344 10.1994H4.96344C4.96344 7.30767 7.30764 4.96346 10.1993 4.96346V3.96346ZM16.4352 10.1994C16.4352 6.75539 13.6433 3.96346 10.1993 3.96346V4.96346C13.091 4.96346 15.4352 7.30767 15.4352 10.1994H16.4352ZM10.1993 19.8988C11.5308 19.8988 12.8008 19.6302 13.9572 19.1438L13.5695 18.222C12.5337 18.6577 11.3953 18.8988 10.1993 18.8988V19.8988ZM0.5 10.1994C0.5 15.5562 4.84254 19.8988 10.1993 19.8988V18.8988C5.39483 18.8988 1.5 15.0039 1.5 10.1994H0.5ZM10.1993 0.5C4.84254 0.5 0.5 4.84257 0.5 10.1994H1.5C1.5 5.39485 5.39483 1.5 10.1993 1.5V0.5ZM19.8987 10.1994C19.8987 4.84257 15.5561 0.5 10.1993 0.5V1.5C15.0039 1.5 18.8987 5.39485 18.8987 10.1994H19.8987ZM16.9962 17.119C18.787 15.3597 19.8987 12.9089 19.8987 10.1994H18.8987C18.8987 12.6298 17.9027 14.8266 16.2954 16.4056L16.9962 17.119ZM16.2265 17.0348L21.5808 25.2725L22.4192 24.7275L17.065 16.4898L16.2265 17.0348ZM21.7266 24.5813L18.8266 26.4749L19.3734 27.3122L22.2734 25.4187L21.7266 24.5813ZM19.5192 26.6211L14.1826 18.4104L13.3441 18.9554L18.6808 27.1661L19.5192 26.6211Z" fill="#025050"/>
</svg>
